HIERARCHY
ROOT Root
{
	OFFSET 0.00000 0.00000 0.00000
	CHANNELS 6 Xposition Yposition Zposition Zrotation Xrotation Yrotation
	JOINT Hip
	{
		OFFSET 0 0 0	
		CHANNELS 3 Zrotation Xrotation Yrotation
		JOINT Tummy
		{
			OFFSET 0 0.04 0	
			CHANNELS 3 Zrotation Xrotation Yrotation
			JOINT ChestBottom
			{
				OFFSET 0 0.194 0	
				CHANNELS 3 Zrotation Xrotation Yrotation
				JOINT ChestTop
				{
					OFFSET 0 0.166 0	
					CHANNELS 3 Zrotation Xrotation Yrotation
					JOINT LeftCollar
					{
						OFFSET 0 0.1 0	
						CHANNELS 3 Zrotation Xrotation Yrotation
						JOINT LeftUpperArm
						{
							OFFSET 0.156 -0.02 0.03	
							CHANNELS 3 Zrotation Xrotation Yrotation
							JOINT LeftForeArm
							{
								OFFSET 0.035 -0.27 -0.01	
								CHANNELS 3 Zrotation Xrotation Yrotation
								JOINT LeftHand
								{
									OFFSET 0.01 -0.27 0.01	
									CHANNELS 3 Zrotation Xrotation Yrotation
									End Site
									{
										OFFSET 0 -0.15 0
									}
								}
							}
						}
					}
					JOINT RightCollar
					{
						OFFSET 0 0.1 0	
						CHANNELS 3 Zrotation Xrotation Yrotation
						JOINT RightUpperArm
						{
							OFFSET -0.156 -0.02 0.03	
							CHANNELS 3 Zrotation Xrotation Yrotation
							JOINT RightForeArm
							{
								OFFSET -0.035 -0.27 -0.01	
								CHANNELS 3 Zrotation Xrotation Yrotation
								JOINT RightHand
								{
									OFFSET -0.01 -0.27 0.01	
									CHANNELS 3 Zrotation Xrotation Yrotation
									End Site
									{
										OFFSET 0 -0.15 0
									}
								}
							}
						}
					}
					JOINT Neck
					{
						OFFSET 0 0.1 0	
						CHANNELS 3 Zrotation Xrotation Yrotation
						JOINT Head
						{
							OFFSET 0 0.127 0.03	
							CHANNELS 3 Zrotation Xrotation Yrotation
							End Site
							{
								OFFSET 0 0.127 0.03
							}
						}
					}
				}
			}
		}
	}
	JOINT LeftHip
	{
		OFFSET 0 0 0	
		CHANNELS 3 Zrotation Xrotation Yrotation
		JOINT LeftThigh
		{
			OFFSET 0.088 -0.06 0	
			CHANNELS 3 Zrotation Xrotation Yrotation
			JOINT LeftLowerLeg
			{
				OFFSET 0 -0.39 0.02	
				CHANNELS 3 Zrotation Xrotation Yrotation
				JOINT LeftFootTop
				{
					OFFSET 0 -0.43 -0.02	
					CHANNELS 3 Zrotation Xrotation Yrotation
					JOINT LeftFootFront
					{
						OFFSET 0 -0.07 0.085	
						CHANNELS 3 Zrotation Xrotation Yrotation
						End Site
						{
							OFFSET 0 -0.005 0.09
						}
					}
				}
				JOINT LeftHeel
				{
					OFFSET 0 -0.43 -0.02	
					CHANNELS 3 Zrotation Xrotation Yrotation
					End Site
					{
						OFFSET 0 -0.075 -0.05
					}
				}
			}
		}
	}
	JOINT RightHip
	{
		OFFSET 0 0 0	
		CHANNELS 3 Zrotation Xrotation Yrotation
		JOINT RightThigh
		{
			OFFSET -0.088 -0.06 0	
			CHANNELS 3 Zrotation Xrotation Yrotation
			JOINT RightLowerLeg
			{
				OFFSET 0 -0.39 0.02	
				CHANNELS 3 Zrotation Xrotation Yrotation
				JOINT RightFootTop
				{
					OFFSET 0 -0.43 -0.02	
					CHANNELS 3 Zrotation Xrotation Yrotation
					JOINT RightFootFront
					{
						OFFSET 0 -0.07 0.085	
						CHANNELS 3 Zrotation Xrotation Yrotation
						End Site
						{
							OFFSET 0 -0.005 0.09
						}
					}
				}
				JOINT RightHeel
				{
					OFFSET 0 -0.43 -0.02	
					CHANNELS 3 Zrotation Xrotation Yrotation
					End Site
					{
						OFFSET 0 -0.075 -0.05
					}
				}
			}
		}
	}
}
MOTION
Frames: 15
Frame Time: 0.025
0 0.955 0 -0 0 -0 -34.636 50.485 37.422 0.59814 14.064 -0.10107 0.59815 14.064 -0.10107 0.49895 11.814 -0.074512 -0 0 -0 -141.25 -83.532 172.03 -1.4695 4.7208 16.728 -8.8391 -7.3884 14.582 -0 0 -0 48.659 -79.677 86.911 -2.0171 -3.3638 -14.669 10.086 -3.3433 -13.158 -7.456 -15.825 -12.768 -7.456 -15.825 -12.768 -0 0 -0 -0 0 -0 -0 0 -0 -0 0 -0 -0 0 -0 -0 0 -0 -0 0 -0 -0 0 -0 -0 0 -0 -0 0 -0 -0 0 -0 -0 0 -0 
0 0.955 0 -0 0 -0 -30.011 46.064 35.261 0.84795 15.173 -0.93965 0.84796 15.173 -0.93965 0.69217 12.746 -0.77054 -0 0 -0 -144.38 -85.659 171.7 -2.3554 2.2751 16.418 -8.5579 -6.2927 13.491 -0 0 -0 41.538 -78.207 79.663 0.10675 -5.287 -14.337 11.494 -0.6529 -12.108 -7.3289 -16.184 -11.935 -7.3289 -16.184 -11.935 -0 0 -0 -0 0 -0 -0 0 -0 -0 0 -0 -0 0 -0 -0 0 -0 -0 0 -0 -0 0 -0 -0 0 -0 -0 0 -0 -0 0 -0 -0 0 -0 
0 0.955 0 -0 0 -0 -25.79 41.017 33.766 1.2077 16.516 -1.8565 1.2077 16.516 -1.8565 0.97241 13.876 -1.5276 -0 0 -0 -159.43 -87.794 159.37 -3.3503 -0.64937 15.663 -8.2591 -5.2548 12.652 -0 0 -0 36.606 -76.885 74.994 2.2333 -7.3477 -13.756 12.364 2.2209 -11.155 -7.1689 -16.666 -11.053 -7.1689 -16.666 -11.053 -0 0 -0 -0 0 -0 -0 0 -0 -0 0 -0 -0 0 -0 -0 0 -0 -0 0 -0 -0 0 -0 -0 0 -0 -0 0 -0 -0 0 -0 -0 0 -0 
0 0.955 0 -0 0 -0 -21.978 35.336 32.983 1.7485 18.081 -2.869 1.7485 18.081 -2.869 1.3969 15.194 -2.3572 -0 0 -0 122.51 -88.712 84.033 -4.4765 -3.7849 14.339 -7.9816 -4.321 12.134 -0 0 -0 32.748 -75.938 71.942 4.278 -9.4352 -12.848 12.935 5.0219 -10.549 -7.0092 -17.233 -10.141 -7.0092 -17.233 -10.141 -0 0 -0 -0 0 -0 -0 0 -0 -0 0 -0 -0 0 -0 -0 0 -0 -0 0 -0 -0 0 -0 -0 0 -0 -0 0 -0 -0 0 -0 -0 0 -0 
0 0.955 0 -0 0 -0 -18.619 29.218 32.775 2.4692 19.755 -3.91 2.4692 19.755 -3.91 1.9647 16.607 -3.2012 -0 0 -0 78.202 -87.072 42.436 -5.6888 -6.8337 12.498 -7.9249 -3.4068 11.915 -0 0 -0 28.77 -75.376 69.223 6.2203 -11.558 -11.63 13.451 7.7076 -10.462 -6.8743 -17.809 -9.2329 -6.8743 -17.809 -9.2329 -0 0 -0 -0 0 -0 -0 0 -0 -0 0 -0 -0 0 -0 -0 0 -0 -0 0 -0 -0 0 -0 -0 0 -0 -0 0 -0 -0 0 -0 -0 0 -0 
0 0.955 0 -0 0 -0 -15.734 23.159 32.893 3.2388 21.289 -4.8666 3.2388 21.289 -4.8665 2.5702 17.903 -3.9688 -0 0 -0 65.51 -85.136 32.294 -6.9182 -9.66 10.365 -8.2113 -2.3233 11.847 -0 0 -0 23.934 -74.903 65.742 8.0983 -13.765 -10.204 13.815 10.239 -10.67 -6.7289 -18.254 -8.3604 -6.7289 -18.254 -8.3604 -0 0 -0 -0 0 -0 -0 0 -0 -0 0 -0 -0 0 -0 -0 0 -0 -0 0 -0 -0 0 -0 -0 0 -0 -0 0 -0 -0 0 -0 -0 0 -0 
0 0.955 0 -0 0 -0 -13.284 17.703 33.181 3.8902 22.426 -5.6774 3.8902 22.426 -5.6774 3.0796 18.866 -4.6166 -0 0 -0 55.873 -83.064 24.892 -8.1111 -12.366 8.1076 -8.7458 -0.83635 11.731 -0 0 -0 18.253 -74.099 61.08 10.067 -16.092 -8.6481 13.618 12.478 -10.637 -6.4935 -18.443 -7.5213 -6.4935 -18.443 -7.5213 -0 0 -0 -0 0 -0 -0 0 -0 -0 0 -0 -0 0 -0 -0 0 -0 -0 0 -0 -0 0 -0 -0 0 -0 -0 0 -0 -0 0 -0 -0 0 -0 
0 0.955 0 -0 0 -0 -11.166 13.161 33.581 4.3381 23.043 -6.3488 4.3381 23.043 -6.3488 3.4263 19.391 -5.1563 -0 0 -0 46.716 -80.597 17.658 -9.3213 -15.2 5.8467 -9.2369 1.236 11.28 -0 0 -0 12.276 -72.718 55.548 12.334 -18.519 -6.8946 12.592 14.185 -10.037 -6.131 -18.346 -6.7053 -6.131 -18.346 -6.7053 -0 0 -0 -0 0 -0 -0 0 -0 -0 0 -0 -0 0 -0 -0 0 -0 -0 0 -0 -0 0 -0 -0 0 -0 -0 0 -0 -0 0 -0 -0 0 -0 
0 0.955 0 -0 0 -0 -9.2777 9.5515 34.036 4.5788 23.176 -6.901 4.5788 23.176 -6.901 3.609 19.508 -5.6072 -0 0 -0 38.941 -77.578 11.599 -10.706 -18.25 3.6553 -9.4527 3.7069 10.183 -0 0 -0 6.6657 -70.76 49.792 14.979 -20.963 -4.7718 10.938 15.216 -9.0765 -5.6895 -18 -5.9317 -5.6895 -18 -5.9317 -0 0 -0 -0 0 -0 -0 0 -0 -0 0 -0 -0 0 -0 -0 0 -0 -0 0 -0 -0 0 -0 -0 0 -0 -0 0 -0 -0 0 -0 -0 0 -0 
0 0.955 0 -0 0 -0 -7.5662 6.7094 34.509 4.6646 22.956 -7.3662 4.6646 22.956 -7.3662 3.6701 19.327 -5.9943 -0 0 -0 33.174 -74.128 7.4519 -12.33 -21.442 1.4085 -9.3796 6.1193 8.5663 -0 0 -0 1.8413 -68.39 44.385 17.919 -23.404 -2.1905 9.2043 15.895 -8.234 -5.2616 -17.487 -5.2282 -5.2617 -17.487 -5.2282 -0 0 -0 -0 0 -0 -0 0 -0 -0 0 -0 -0 0 -0 -0 0 -0 -0 0 -0 -0 0 -0 -0 0 -0 -0 0 -0 -0 0 -0 -0 0 -0 
0 0.955 0 -0 0 -0 -6.0097 4.4236 34.982 4.6567 22.511 -7.7834 4.6567 22.511 -7.7834 3.6581 18.955 -6.3471 -0 0 -0 28.691 -70.422 4.5842 -14.048 -24.764 -1.1893 -9.1127 8.2493 6.9841 -0 0 -0 -2.162 -65.783 39.559 21.081 -25.891 0.78582 7.9354 16.786 -7.8501 -4.888 -16.891 -4.5826 -4.888 -16.891 -4.5826 -0 0 -0 -0 0 -0 -0 0 -0 -0 0 -0 -0 0 -0 -0 0 -0 -0 0 -0 -0 0 -0 -0 0 -0 -0 0 -0 -0 0 -0 -0 0 -0 
0 0.955 0 -0 0 -0 -4.5963 2.5172 35.429 4.5976 21.932 -8.1864 4.5976 21.932 -8.1864 3.6061 18.471 -6.6912 -0 0 -0 24.961 -66.593 2.5012 -15.669 -28.235 -4.3212 -8.871 10.128 5.9571 -0 0 -0 -5.4519 -63.137 35.355 24.567 -28.39 3.9816 7.3403 18.051 -7.9751 -4.5635 -16.256 -3.9539 -4.5635 -16.256 -3.9539 -0 0 -0 -0 0 -0 -0 0 -0 -0 0 -0 -0 0 -0 -0 0 -0 -0 0 -0 -0 0 -0 -0 0 -0 -0 0 -0 -0 0 -0 -0 0 -0 
0 0.955 0 -0 0 -0 -3.3016 0.87506 35.838 4.5034 21.305 -8.5801 4.5034 21.305 -8.5801 3.5264 17.946 -7.0291 -0 0 -0 22.799 -62.967 1.8331 -17.603 -31.623 -7.8221 -8.8137 11.735 5.5065 -0 0 -0 -8.2545 -60.682 31.552 28.641 -30.711 7.2384 7.1663 19.445 -8.3889 -4.2856 -15.595 -3.3411 -4.2856 -15.595 -3.3411 -0 0 -0 -0 0 -0 -0 0 -0 -0 0 -0 -0 0 -0 -0 0 -0 -0 0 -0 -0 0 -0 -0 0 -0 -0 0 -0 -0 0 -0 -0 0 -0 
0 0.955 0 -0 0 -0 -2.082 -0.55912 36.216 4.3488 20.688 -8.9181 4.3488 20.688 -8.9181 3.398 17.427 -7.3221 -0 0 -0 22.725 -59.627 2.8344 -20.5 -34.847 -11.614 -8.9854 13.085 5.4321 -0 0 -0 -10.79 -58.512 27.75 33.47 -32.641 10.568 6.9997 20.819 -8.8131 -4.0124 -14.92 -2.7912 -4.0124 -14.92 -2.7912 -0 0 -0 -0 0 -0 -0 0 -0 -0 0 -0 -0 0 -0 -0 0 -0 -0 0 -0 -0 0 -0 -0 0 -0 -0 0 -0 -0 0 -0 -0 0 -0 
0 0.955 0 -0 0 -0 -0.90704 -1.812 36.565 4.1145 20.098 -9.1916 4.1145 20.098 -9.1916 3.2047 16.931 -7.5627 -0 0 -0 24.238 -56.483 4.9367 -24.432 -37.907 -15.669 -9.4693 14.317 5.5794 -0 0 -0 -13.051 -56.577 23.93 38.868 -34.138 14.057 6.7611 22.261 -9.1484 -3.6869 -14.271 -2.2829 -3.6869 -14.271 -2.2829 -0 0 -0 -0 0 -0 -0 0 -0 -0 0 -0 -0 0 -0 -0 0 -0 -0 0 -0 -0 0 -0 -0 0 -0 -0 0 -0 -0 0 -0 -0 0 -0 
